<svg width="35" height="35" viewBox="0 0 35 35" fill="none" xmlns="http://www.w3.org/2000/svg">
<rect width="35" height="35" rx="7" fill="#1C99DF"/>
<g clip-path="url(#clip0_2002_93)">
<path d="M7.3356 17.1607L11.7136 18.7947L13.4081 24.2443C13.5166 24.5933 13.9434 24.7223 14.2266 24.4907L16.667 22.5013C16.9228 22.2929 17.2872 22.2825 17.5545 22.4765L21.956 25.6722C22.2591 25.8924 22.6884 25.7264 22.7644 25.3602L25.9888 9.85041C26.0718 9.4504 25.6787 9.1167 25.2978 9.26401L7.33047 16.1953C6.88707 16.3663 6.89093 16.994 7.3356 17.1607ZM13.135 17.9248L21.6912 12.6551C21.845 12.5606 22.0032 12.7686 21.8712 12.891L14.8098 19.4549C14.5616 19.686 14.4015 19.9951 14.3562 20.3308L14.1156 22.1133C14.0838 22.3513 13.7494 22.375 13.6838 22.1446L12.7586 18.894C12.6527 18.5233 12.8071 18.1273 13.135 17.9248Z" fill="white"/>
</g>
<defs>
<clipPath id="clip0_2002_93">
<rect width="19" height="19" fill="white" transform="translate(7 8)"/>
</clipPath>
</defs>
</svg>
