<svg width="44" height="44" viewBox="0 0 44 44" fill="none" xmlns="http://www.w3.org/2000/svg">
<rect width="44" height="44" rx="22" fill="#DC1F27" fill-opacity="0.25"/>
<g clip-path="url(#clip0_2002_59)">
<path d="M10.3356 22.1607L14.7136 23.7947L16.4081 29.2443C16.5166 29.5933 16.9434 29.7223 17.2266 29.4907L19.667 27.5013C19.9228 27.2929 20.2872 27.2825 20.5545 27.4765L24.956 30.6722C25.2591 30.8924 25.6884 30.7264 25.7644 30.3602L28.9888 14.8504C29.0718 14.4504 28.6787 14.1167 28.2978 14.264L10.3305 21.1953C9.88707 21.3663 9.89093 21.994 10.3356 22.1607ZM16.135 22.9248L24.6912 17.6551C24.845 17.5606 25.0032 17.7686 24.8712 17.891L17.8098 24.4549C17.5616 24.686 17.4015 24.9951 17.3562 25.3308L17.1156 27.1133C17.0838 27.3513 16.7494 27.375 16.6838 27.1446L15.7586 23.894C15.6527 23.5233 15.8071 23.1273 16.135 22.9248Z" fill="#DC1F27"/>
</g>
<defs>
<clipPath id="clip0_2002_59">
<rect width="19" height="19" fill="white" transform="translate(10 13)"/>
</clipPath>
</defs>
</svg>
