<svg width="35" height="35" viewBox="0 0 35 35" fill="none" xmlns="http://www.w3.org/2000/svg">
<rect width="35" height="35" rx="7" fill="#4FC53D"/>
<g clip-path="url(#clip0_2002_87)">
<path d="M17.0387 8.01099C12.0208 8.24991 8.06099 12.4288 8.07622 17.4524C8.08085 18.9824 8.45023 20.4266 9.10184 21.7027L8.10139 26.5589C8.04727 26.8216 8.28419 27.0517 8.54515 26.9899L13.3038 25.8624C14.5263 26.4714 15.8995 26.8232 17.3528 26.8454C22.4816 26.9237 26.758 22.8513 26.9179 17.7245C27.0893 12.2289 22.5535 7.74835 17.0387 8.01099ZM22.7167 22.6406C21.3231 24.0342 19.4702 24.8017 17.4994 24.8017C16.3454 24.8017 15.2406 24.5427 14.2155 24.0321L13.5528 23.702L10.6353 24.3932L11.2494 21.4121L10.9229 20.7727C10.3908 19.7306 10.121 18.6036 10.121 17.4232C10.121 15.4524 10.8884 13.5995 12.282 12.2059C13.6632 10.8247 15.5463 10.0447 17.4995 10.0447C19.4704 10.0448 21.3232 10.8123 22.7168 12.2058C24.1104 13.5994 24.8778 15.4523 24.8779 17.4231C24.8778 19.3764 24.0979 21.2595 22.7167 22.6406Z" fill="white"/>
<path d="M22.0731 19.4666L20.2478 18.9425C20.0079 18.8737 19.7495 18.9417 19.5746 19.1199L19.1282 19.5747C18.94 19.7664 18.6544 19.828 18.4053 19.7272C17.5419 19.3778 15.7256 17.7629 15.2617 16.9551C15.1279 16.7221 15.15 16.4308 15.3143 16.2181L15.704 15.714C15.8567 15.5165 15.8889 15.2512 15.788 15.0228L15.02 13.286C14.8361 12.87 14.3045 12.7489 13.9572 13.0426C13.4478 13.4735 12.8433 14.1282 12.7698 14.8536C12.6403 16.1324 13.1887 17.7446 15.2628 19.6803C17.6588 21.9166 19.5776 22.2121 20.8268 21.9094C21.5354 21.7378 22.1017 21.0498 22.4591 20.4864C22.7027 20.1023 22.5103 19.5922 22.0731 19.4666Z" fill="white"/>
</g>
<defs>
<clipPath id="clip0_2002_87">
<rect width="19" height="19" fill="white" transform="translate(8 8)"/>
</clipPath>
</defs>
</svg>
