<svg width="44" height="44" viewBox="0 0 44 44" fill="none" xmlns="http://www.w3.org/2000/svg">
<rect width="44" height="44" rx="22" fill="#DC1F27" fill-opacity="0.25"/>
<g clip-path="url(#clip0_2002_53)">
<path d="M22.0387 12.011C17.0208 12.2499 13.061 16.4288 13.0762 21.4524C13.0809 22.9824 13.4502 24.4266 14.1018 25.7027L13.1014 30.5589C13.0473 30.8216 13.2842 31.0517 13.5452 30.9899L18.3038 29.8624C19.5263 30.4714 20.8995 30.8232 22.3528 30.8454C27.4816 30.9237 31.758 26.8513 31.9179 21.7245C32.0893 16.2289 27.5535 11.7483 22.0387 12.011ZM27.7167 26.6406C26.3231 28.0342 24.4702 28.8017 22.4994 28.8017C21.3454 28.8017 20.2406 28.5427 19.2155 28.0321L18.5528 27.702L15.6353 28.3932L16.2494 25.4121L15.9229 24.7727C15.3908 23.7306 15.121 22.6036 15.121 21.4232C15.121 19.4524 15.8884 17.5995 17.282 16.2059C18.6632 14.8247 20.5463 14.0447 22.4995 14.0447C24.4704 14.0448 26.3232 14.8123 27.7168 16.2058C29.1104 17.5994 29.8778 19.4523 29.8779 21.4231C29.8778 23.3764 29.0979 25.2595 27.7167 26.6406Z" fill="#DC1F27"/>
<path d="M27.0731 23.4666L25.2478 22.9425C25.0079 22.8737 24.7495 22.9417 24.5746 23.1199L24.1282 23.5747C23.94 23.7664 23.6544 23.828 23.4053 23.7272C22.5419 23.3778 20.7256 21.7629 20.2617 20.9551C20.1279 20.7221 20.15 20.4308 20.3143 20.2181L20.704 19.714C20.8567 19.5165 20.8889 19.2512 20.788 19.0228L20.02 17.286C19.8361 16.87 19.3045 16.7489 18.9572 17.0426C18.4478 17.4735 17.8433 18.1282 17.7698 18.8536C17.6403 20.1324 18.1887 21.7446 20.2628 23.6803C22.6588 25.9166 24.5776 26.2121 25.8268 25.9094C26.5354 25.7378 27.1017 25.0498 27.4591 24.4864C27.7027 24.1023 27.5103 23.5922 27.0731 23.4666Z" fill="#DC1F27"/>
</g>
<defs>
<clipPath id="clip0_2002_53">
<rect width="19" height="19" fill="white" transform="translate(13 12)"/>
</clipPath>
</defs>
</svg>
