<svg width="58" height="58" viewBox="0 0 58 58" fill="none" xmlns="http://www.w3.org/2000/svg">
<path d="M36.7031 0.90625H4.07812C3.35707 0.90625 2.66554 1.19269 2.15568 1.70255C1.64581 2.21242 1.35938 2.90394 1.35938 3.625V36.25C1.35938 36.9711 1.64581 37.6626 2.15568 38.1724C2.66554 38.6823 3.35707 38.9688 4.07812 38.9688H36.7031C37.4242 38.9688 38.1157 38.6823 38.6256 38.1724C39.1354 37.6626 39.4219 36.9711 39.4219 36.25V3.625C39.4219 2.90394 39.1354 2.21242 38.6256 1.70255C38.1157 1.19269 37.4242 0.90625 36.7031 0.90625ZM37.6094 3.625V6.34375H16.4194L14.6069 2.71875H36.7031C36.9435 2.71875 37.174 2.81423 37.3439 2.98418C37.5139 3.15414 37.6094 3.38465 37.6094 3.625ZM4.07812 2.71875H12.5806L14.3931 6.34375H3.17188V3.625C3.17188 3.38465 3.26735 3.15414 3.43731 2.98418C3.60726 2.81423 3.83777 2.71875 4.07812 2.71875ZM36.7031 37.1562H4.07812C3.83777 37.1562 3.60726 37.0608 3.43731 36.8908C3.26735 36.7209 3.17188 36.4904 3.17188 36.25V8.15625H37.6094V36.25C37.6094 36.4904 37.5139 36.7209 37.3439 36.8908C37.174 37.0608 36.9435 37.1562 36.7031 37.1562Z" fill="#282A2B"/>
<path d="M32.1719 12.6875H26.7344C26.0133 12.6875 25.3218 12.9739 24.8119 13.4838C24.3021 13.9937 24.0156 14.6852 24.0156 15.4062V29.9062C24.0156 30.6273 24.3021 31.3188 24.8119 31.8287C25.3218 32.3386 26.0133 32.625 26.7344 32.625H32.1719C32.8929 32.625 33.5845 32.3386 34.0943 31.8287C34.6042 31.3188 34.8906 30.6273 34.8906 29.9062V15.4062C34.8906 14.6852 34.6042 13.9937 34.0943 13.4838C33.5845 12.9739 32.8929 12.6875 32.1719 12.6875ZM33.0781 29.9062C33.0781 30.1466 32.9826 30.3771 32.8127 30.5471C32.6427 30.717 32.4122 30.8125 32.1719 30.8125H26.7344C26.494 30.8125 26.2635 30.717 26.0936 30.5471C25.9236 30.3771 25.8281 30.1466 25.8281 29.9062V15.4062C25.8281 15.1659 25.9236 14.9354 26.0936 14.7654C26.2635 14.5955 26.494 14.5 26.7344 14.5H32.1719C32.4122 14.5 32.6427 14.5955 32.8127 14.7654C32.9826 14.9354 33.0781 15.1659 33.0781 15.4062V29.9062Z" fill="#282A2B"/>
<path d="M20.3906 13.5938H6.79688C6.55652 13.5938 6.32601 13.6892 6.15606 13.8592C5.9861 14.0291 5.89062 14.2596 5.89062 14.5C5.89062 14.7404 5.9861 14.9709 6.15606 15.1408C6.32601 15.3108 6.55652 15.4062 6.79688 15.4062H20.3906C20.631 15.4062 20.8615 15.3108 21.0314 15.1408C21.2014 14.9709 21.2969 14.7404 21.2969 14.5C21.2969 14.2596 21.2014 14.0291 21.0314 13.8592C20.8615 13.6892 20.631 13.5938 20.3906 13.5938Z" fill="#282A2B"/>
<path d="M20.3906 19.0312H6.79688C6.55652 19.0312 6.32601 19.1267 6.15606 19.2967C5.9861 19.4666 5.89062 19.6971 5.89062 19.9375C5.89062 20.1779 5.9861 20.4084 6.15606 20.5783C6.32601 20.7483 6.55652 20.8438 6.79688 20.8438H20.3906C20.631 20.8438 20.8615 20.7483 21.0314 20.5783C21.2014 20.4084 21.2969 20.1779 21.2969 19.9375C21.2969 19.6971 21.2014 19.4666 21.0314 19.2967C20.8615 19.1267 20.631 19.0312 20.3906 19.0312Z" fill="#282A2B"/>
<path d="M20.3906 24.4688H6.79688C6.55652 24.4688 6.32601 24.5642 6.15606 24.7342C5.9861 24.9041 5.89062 25.1346 5.89062 25.375C5.89062 25.6154 5.9861 25.8459 6.15606 26.0158C6.32601 26.1858 6.55652 26.2812 6.79688 26.2812H20.3906C20.631 26.2812 20.8615 26.1858 21.0314 26.0158C21.2014 25.8459 21.2969 25.6154 21.2969 25.375C21.2969 25.1346 21.2014 24.9041 21.0314 24.7342C20.8615 24.5642 20.631 24.4688 20.3906 24.4688Z" fill="#282A2B"/>
<path d="M20.3906 29.9062H6.79688C6.55652 29.9062 6.32601 30.0017 6.15606 30.1717C5.9861 30.3416 5.89062 30.5721 5.89062 30.8125C5.89062 31.0529 5.9861 31.2834 6.15606 31.4533C6.32601 31.6233 6.55652 31.7188 6.79688 31.7188H20.3906C20.631 31.7188 20.8615 31.6233 21.0314 31.4533C21.2014 31.2834 21.2969 31.0529 21.2969 30.8125C21.2969 30.5721 21.2014 30.3416 21.0314 30.1717C20.8615 30.0017 20.631 29.9062 20.3906 29.9062Z" fill="#282A2B"/>
<g filter="url(#filter0_b_1_244)">
<path d="M43.4414 31.0434H31.8677C31.5391 33.1427 31.3589 35.2625 31.3285 37.3871H43.9806C43.9507 35.2625 43.7705 33.1426 43.4414 31.0434Z" fill="#281C1E" fill-opacity="0.12"/>
<path d="M44.97 29.2309H54.3859C52.9762 26.6425 50.9857 24.4162 48.5706 22.7268C46.1555 21.0374 43.3816 19.9309 40.4668 19.4941C42.4651 21.1852 44.0601 24.6625 44.97 29.2309Z" fill="#281C1E" fill-opacity="0.12"/>
<path d="M44.97 47.3559C44.0637 51.9252 42.4651 55.4025 40.4668 57.0935C43.3817 56.6566 46.1556 55.55 48.5707 53.8604C50.9857 52.1708 52.9763 49.9444 54.3859 47.3559H44.97Z" fill="#281C1E" fill-opacity="0.12"/>
<path d="M32.2073 47.3559C33.4027 52.9502 35.6076 56.4184 37.6548 56.4184C39.702 56.4184 41.906 52.9502 43.1014 47.3559H32.2073Z" fill="#281C1E" fill-opacity="0.12"/>
<path d="M45.7931 37.3871H56.64C56.5438 35.2078 56.0713 33.0616 55.2435 31.0434H45.2856C45.5943 33.1445 45.7638 35.2637 45.7931 37.3871Z" fill="#281C1E" fill-opacity="0.12"/>
<path d="M55.2435 45.5434C56.0715 43.5252 56.544 41.3789 56.64 39.1996H45.7931C45.7639 41.3231 45.5944 43.4423 45.2856 45.5434H55.2435Z" fill="#281C1E" fill-opacity="0.12"/>
<path d="M43.9806 39.1996H31.3285C31.3588 41.3243 31.539 43.4441 31.8677 45.5434H43.4414C43.7706 43.4442 43.9507 41.3243 43.9806 39.1996Z" fill="#281C1E" fill-opacity="0.12"/>
<path d="M43.1014 29.2309C41.906 23.6375 39.7011 20.1684 37.6548 20.1684C35.6085 20.1684 33.4027 23.6375 32.2073 29.2309H43.1014Z" fill="#281C1E" fill-opacity="0.12"/>
<path d="M20.0665 31.0434C19.2379 33.0614 18.7651 35.2077 18.669 37.3871H29.5159C29.5456 35.2637 29.7152 33.1445 30.0234 31.0434H20.0665Z" fill="#281C1E" fill-opacity="0.12"/>
<path d="M30.3388 47.3559H20.9229C22.3324 49.9445 24.3229 52.171 26.738 53.8606C29.1531 55.5501 31.927 56.6568 34.8419 57.0935C32.8437 55.4025 31.2487 51.9279 30.3388 47.3559Z" fill="#281C1E" fill-opacity="0.12"/>
<path d="M30.3388 29.2309C31.245 24.6625 32.8437 21.1852 34.8419 19.4941C31.9271 19.9309 29.1533 21.0374 26.7382 22.7268C24.3231 24.4162 22.3325 26.6425 20.9229 29.2309H30.3388Z" fill="#281C1E" fill-opacity="0.12"/>
<path d="M29.5158 39.1996H18.668C18.7639 41.3791 19.2367 43.5254 20.0654 45.5434H30.0233C29.715 43.4422 29.5454 41.3231 29.5158 39.1996Z" fill="#281C1E" fill-opacity="0.12"/>
</g>
<defs>
<filter id="filter0_b_1_244" x="14.668" y="15.4941" width="45.9727" height="45.5996" filterUnits="userSpaceOnUse" color-interpolation-filters="sRGB">
<feFlood flood-opacity="0" result="BackgroundImageFix"/>
<feGaussianBlur in="BackgroundImageFix" stdDeviation="2"/>
<feComposite in2="SourceAlpha" operator="in" result="effect1_backgroundBlur_1_244"/>
<feBlend mode="normal" in="SourceGraphic" in2="effect1_backgroundBlur_1_244" result="shape"/>
</filter>
</defs>
</svg>
