<svg width="58" height="58" viewBox="0 0 58 58" fill="none" xmlns="http://www.w3.org/2000/svg">
<path d="M3.88783 33.8664C3.80384 33.9511 3.73738 34.0515 3.69228 34.1619C3.64719 34.2724 3.62433 34.3906 3.62502 34.5099V45.3849C3.62502 45.6252 3.72049 45.8557 3.89045 46.0257C4.0604 46.1956 4.29091 46.2911 4.53127 46.2911C4.77162 46.2911 5.00213 46.1956 5.17208 46.0257C5.34204 45.8557 5.43752 45.6252 5.43752 45.3849V34.8814L9.06252 31.2564V31.773C9.06252 35.6186 10.5902 39.3068 13.3095 42.026C16.0287 44.7453 19.7169 46.273 23.5625 46.273C27.4082 46.273 31.0963 44.7453 33.8156 42.026C36.5348 39.3068 38.0625 35.6186 38.0625 31.773V31.2564L41.6875 34.8814V45.3577C41.6875 45.598 41.783 45.8285 41.9529 45.9985C42.1229 46.1684 42.3534 46.2639 42.5938 46.2639C42.8341 46.2639 43.0646 46.1684 43.2346 45.9985C43.4045 45.8285 43.5 45.598 43.5 45.3577V34.4827C43.5007 34.3634 43.4778 34.2452 43.4327 34.1348C43.3876 34.0243 43.3212 33.9239 43.2372 33.8392L38.0625 28.6917V18.5599L43.2372 13.3852C43.3212 13.3005 43.3876 13.2001 43.4327 13.0897C43.4778 12.9792 43.5007 12.861 43.5 12.7417V1.86673C43.5 1.62638 43.4045 1.39587 43.2346 1.22592C43.0646 1.05596 42.8341 0.960484 42.5938 0.960484C42.3534 0.960484 42.1229 1.05596 41.9529 1.22592C41.783 1.39587 41.6875 1.62638 41.6875 1.86673V12.3702L38.0625 15.9952C37.9777 14.8524 37.4631 13.7843 36.6224 13.0057C35.7816 12.2272 34.6771 11.7961 33.5313 11.7992H32.625V9.98673C32.6194 7.74505 31.7831 5.58501 30.2778 3.92392L31.7822 2.41955C31.8671 2.3353 31.9346 2.23507 31.9806 2.12463C32.0266 2.0142 32.0503 1.89574 32.0503 1.77611C32.0503 1.65647 32.0266 1.53802 31.9806 1.42759C31.9346 1.31715 31.8671 1.21692 31.7822 1.13267C31.6124 0.963882 31.3827 0.869141 31.1433 0.869141C30.9039 0.869141 30.6742 0.963882 30.5044 1.13267L28.9275 2.71861C27.379 1.55964 25.4967 0.933291 23.5625 0.933291C21.6283 0.933291 19.7461 1.55964 18.1975 2.71861L16.7113 1.25048C16.5406 1.07743 16.3082 0.979255 16.0652 0.977555C15.8221 0.975856 15.5884 1.07077 15.4153 1.24142C15.2423 1.41207 15.1441 1.64448 15.1424 1.88751C15.1407 2.13055 15.2356 2.36431 15.4063 2.53736L16.8291 3.96017C15.3303 5.62396 14.5007 7.78371 14.5 10.023V11.8355H13.5938C12.4479 11.8323 11.3434 12.2634 10.5026 13.042C9.66188 13.8205 9.14731 14.8887 9.06252 16.0314L5.43752 12.4064V1.89392C5.43752 1.65357 5.34204 1.42306 5.17208 1.25311C5.00213 1.08315 4.77162 0.987672 4.53127 0.987672C4.29091 0.987672 4.0604 1.08315 3.89045 1.25311C3.72049 1.42306 3.62502 1.65357 3.62502 1.89392V12.7689C3.62433 12.8882 3.64719 13.0064 3.69228 13.1168C3.73738 13.2273 3.80384 13.3277 3.88783 13.4124L9.06252 18.5599V28.6917L3.88783 33.8664ZM36.25 16.3667V31.773C36.2445 34.9773 35.0267 38.0607 32.8413 40.4041C30.656 42.7475 27.6648 44.1772 24.4688 44.4061V13.648H26.2813V24.9761C26.279 25.1489 26.3262 25.3187 26.4172 25.4655L28.7916 29.2264C28.3415 29.7442 28.0937 30.4072 28.0938 31.0933C28.0938 31.6758 28.2665 32.2453 28.5901 32.7296C28.9138 33.214 29.3738 33.5915 29.912 33.8144C30.4501 34.0373 31.0423 34.0957 31.6137 33.982C32.185 33.8684 32.7098 33.5879 33.1217 33.1759C33.5336 32.764 33.8142 32.2392 33.9278 31.6679C34.0414 31.0966 33.9831 30.5044 33.7602 29.9662C33.5373 29.428 33.1598 28.968 32.6754 28.6444C32.191 28.3207 31.6216 28.148 31.0391 28.148C30.7944 28.1532 30.5511 28.1867 30.3141 28.2477L28.0938 24.7224V13.648H30.8125V20.898C30.8118 21.0173 30.8347 21.1355 30.8798 21.2459C30.9249 21.3563 30.9913 21.4567 31.0753 21.5414L32.8878 23.3539C32.9721 23.4389 33.0723 23.5063 33.1827 23.5523C33.2932 23.5983 33.4116 23.622 33.5313 23.622C33.6509 23.622 33.7694 23.5983 33.8798 23.5523C33.9902 23.5063 34.0905 23.4389 34.1747 23.3539C34.3435 23.1841 34.4382 22.9544 34.4382 22.715C34.4382 22.4756 34.3435 22.2459 34.1747 22.0761L32.625 20.5264V13.648H33.5313C34.2523 13.648 34.9438 13.9344 35.4537 14.4443C35.9636 14.9542 36.25 15.6457 36.25 16.3667ZM31.0391 29.9605C31.2631 29.9605 31.4821 30.0269 31.6684 30.1514C31.8547 30.2759 31.9999 30.4528 32.0857 30.6598C32.1714 30.8668 32.1938 31.0946 32.1501 31.3143C32.1064 31.534 31.9985 31.7359 31.8401 31.8943C31.6817 32.0527 31.4798 32.1606 31.2601 32.2043C31.0403 32.2481 30.8126 32.2256 30.6056 32.1399C30.3986 32.0541 30.2217 31.9089 30.0972 31.7227C29.9727 31.5364 29.9063 31.3174 29.9063 31.0933C29.9086 30.7936 30.0287 30.5068 30.2407 30.2949C30.4526 30.083 30.7394 29.9629 31.0391 29.9605ZM23.5625 2.77298C25.4853 2.77298 27.3294 3.53682 28.689 4.89646C30.0487 6.2561 30.8125 8.10016 30.8125 10.023V11.8355H16.3125V10.023C16.3125 8.10016 17.0764 6.2561 18.436 4.89646C19.7956 3.53682 21.6397 2.77298 23.5625 2.77298ZM10.875 16.3667C10.875 15.6457 11.1615 14.9542 11.6713 14.4443C12.1812 13.9344 12.8727 13.648 13.5938 13.648H14.5V20.5264L12.9503 22.0761C12.7815 22.2459 12.6868 22.4756 12.6868 22.715C12.6868 22.9544 12.7815 23.1841 12.9503 23.3539C13.0346 23.4389 13.1348 23.5063 13.2452 23.5523C13.3557 23.5983 13.4741 23.622 13.5938 23.622C13.7134 23.622 13.8319 23.5983 13.9423 23.5523C14.0527 23.5063 14.153 23.4389 14.2372 23.3539L16.0497 21.5414C16.1337 21.4567 16.2001 21.3563 16.2452 21.2459C16.2903 21.1355 16.3132 21.0173 16.3125 20.898V13.648H19.0313V24.7224L16.811 28.2477C16.5739 28.1867 16.3307 28.1532 16.086 28.148C15.5034 28.148 14.934 28.3207 14.4496 28.6444C13.9653 28.968 13.5878 29.428 13.3648 29.9662C13.1419 30.5044 13.0836 31.0966 13.1972 31.6679C13.3109 32.2392 13.5914 32.764 14.0033 33.1759C14.4152 33.5879 14.94 33.8684 15.5114 33.982C16.0827 34.0957 16.6749 34.0373 17.2131 33.8144C17.7513 33.5915 18.2113 33.214 18.5349 32.7296C18.8585 32.2453 19.0313 31.6758 19.0313 31.0933C19.0313 30.4072 18.7835 29.7442 18.3335 29.2264L20.7078 25.4655C20.7989 25.3187 20.846 25.1489 20.8438 24.9761V13.648H22.6563V44.4061C19.4602 44.1772 16.4691 42.7475 14.2837 40.4041C12.0983 38.0607 10.8806 34.9773 10.875 31.773V16.3667ZM17.2188 31.0933C17.2188 31.3174 17.1523 31.5364 17.0279 31.7227C16.9034 31.9089 16.7265 32.0541 16.5195 32.1399C16.3125 32.2256 16.0847 32.2481 15.865 32.2043C15.6452 32.1606 15.4434 32.0527 15.2849 31.8943C15.1265 31.7359 15.0186 31.534 14.9749 31.3143C14.9312 31.0946 14.9536 30.8668 15.0394 30.6598C15.1251 30.4528 15.2703 30.2759 15.4566 30.1514C15.6429 30.0269 15.8619 29.9605 16.086 29.9605C16.3864 29.9605 16.6745 30.0798 16.887 30.2923C17.0994 30.5047 17.2188 30.7929 17.2188 31.0933Z" fill="#282A2B"/>
<g filter="url(#filter0_b_1_234)">
<path d="M37.1562 28.9277C36.7978 28.9277 36.4473 28.8214 36.1493 28.6223C35.8512 28.4231 35.6189 28.14 35.4817 27.8088C35.3445 27.4777 35.3086 27.1132 35.3786 26.7616C35.4485 26.41 35.6211 26.0871 35.8746 25.8336C36.1281 25.5801 36.4511 25.4075 36.8026 25.3376C37.1542 25.2676 37.5187 25.3035 37.8499 25.4407C38.1811 25.5779 38.4641 25.8102 38.6633 26.1083C38.8624 26.4063 38.9688 26.7568 38.9688 27.1152C38.9688 27.5959 38.7778 28.057 38.4379 28.3969C38.098 28.7368 37.637 28.9277 37.1562 28.9277ZM49.8438 18.0527H24.4688C23.267 18.0527 22.1144 18.5301 21.2647 19.3799C20.4149 20.2297 19.9375 21.3822 19.9375 22.584V38.389C19.9382 40.9245 20.5647 43.4207 21.7614 45.6561C22.9582 47.8914 24.6881 49.7969 26.7978 51.2034L30.8125 53.9221V45.7659L27.55 43.319C27.4374 43.2346 27.3461 43.1251 27.2832 42.9993C27.2203 42.8734 27.1875 42.7347 27.1875 42.594V38.7696C26.3332 38.549 25.5887 38.0245 25.0935 37.2942C24.5983 36.564 24.3865 35.6782 24.4976 34.803C24.6088 33.9277 25.0354 33.123 25.6974 32.5398C26.3594 31.9565 27.2114 31.6347 28.0938 31.6347C28.9761 31.6347 29.8281 31.9565 30.4901 32.5398C31.1521 33.123 31.5787 33.9277 31.6899 34.803C31.801 35.6782 31.5892 36.564 31.094 37.2942C30.5988 38.0245 29.8543 38.549 29 38.7696V42.0684L32.2625 44.5152C32.3751 44.5996 32.4664 44.7091 32.5293 44.8349C32.5922 44.9608 32.625 45.0995 32.625 45.2402V55.0912L34.6459 56.4324C35.133 56.7542 35.6777 56.9789 36.25 57.094V30.6134C35.3957 30.3928 34.6512 29.8682 34.156 29.138C33.6608 28.4077 33.449 27.522 33.5601 26.6467C33.6713 25.7714 34.0979 24.9668 34.7599 24.3835C35.4219 23.8003 36.2739 23.4785 37.1562 23.4785C38.0386 23.4785 38.8906 23.8003 39.5526 24.3835C40.2146 24.9668 40.6412 25.7714 40.7524 26.6467C40.8635 27.522 40.6517 28.4077 40.1565 29.138C39.6613 29.8682 38.9168 30.3928 38.0625 30.6134V57.094C38.6348 56.9789 39.1795 56.7542 39.6666 56.4324L41.6875 55.0912V45.2402C41.6875 45.0995 41.7203 44.9608 41.7832 44.8349C41.8461 44.7091 41.9374 44.5996 42.05 44.5152L45.3125 42.0684V38.7696C44.4582 38.549 43.7137 38.0245 43.2185 37.2942C42.7233 36.564 42.5115 35.6782 42.6226 34.803C42.7338 33.9277 43.1604 33.123 43.8224 32.5398C44.4844 31.9565 45.3364 31.6347 46.2188 31.6347C47.1011 31.6347 47.9531 31.9565 48.6151 32.5398C49.2771 33.123 49.7037 33.9277 49.8149 34.803C49.926 35.6782 49.7142 36.564 49.219 37.2942C48.7238 38.0245 47.9793 38.549 47.125 38.7696V42.5215C47.125 42.6622 47.0922 42.8009 47.0293 42.9268C46.9664 43.0526 46.8751 43.1621 46.7625 43.2465L43.5 45.6934V53.8496L47.5147 51.1309C49.6142 49.7312 51.3378 47.8373 52.534 45.6155C53.7302 43.3938 54.3624 40.9123 54.375 38.389V22.584C54.375 21.3822 53.8976 20.2297 53.0478 19.3799C52.1981 18.5301 51.0455 18.0527 49.8438 18.0527ZM29.9062 35.2715C29.9062 34.913 29.8 34.5626 29.6008 34.2645C29.4016 33.9665 29.1186 33.7341 28.7874 33.597C28.4562 33.4598 28.0917 33.4239 27.7401 33.4938C27.3886 33.5637 27.0656 33.7364 26.8121 33.9899C26.5586 34.2433 26.386 34.5663 26.3161 34.9179C26.2461 35.2695 26.282 35.6339 26.4192 35.9651C26.5564 36.2963 26.7887 36.5794 27.0868 36.7785C27.3848 36.9777 27.7353 37.084 28.0938 37.084C28.5745 37.084 29.0355 36.893 29.3754 36.5531C29.7153 36.2132 29.9062 35.7522 29.9062 35.2715ZM48.0312 35.2715C48.0312 34.913 47.9249 34.5626 47.7258 34.2645C47.5266 33.9665 47.2436 33.7341 46.9124 33.597C46.5812 33.4598 46.2167 33.4239 45.8651 33.4938C45.5136 33.5637 45.1906 33.7364 44.9371 33.9899C44.6836 34.2433 44.511 34.5663 44.4411 34.9179C44.3711 35.2695 44.407 35.6339 44.5442 35.9651C44.6814 36.2963 44.9137 36.5794 45.2118 36.7785C45.5098 36.9777 45.8603 37.084 46.2188 37.084C46.6995 37.084 47.1605 36.893 47.5004 36.5531C47.8403 36.2132 48.0312 35.7522 48.0312 35.2715Z" fill="#281C1E" fill-opacity="0.12"/>
</g>
<defs>
<filter id="filter0_b_1_234" x="15.9375" y="14.0527" width="42.4375" height="47.041" filterUnits="userSpaceOnUse" color-interpolation-filters="sRGB">
<feFlood flood-opacity="0" result="BackgroundImageFix"/>
<feGaussianBlur in="BackgroundImageFix" stdDeviation="2"/>
<feComposite in2="SourceAlpha" operator="in" result="effect1_backgroundBlur_1_234"/>
<feBlend mode="normal" in="SourceGraphic" in2="effect1_backgroundBlur_1_234" result="shape"/>
</filter>
</defs>
</svg>
