<svg width="58" height="58" viewBox="0 0 58 58" fill="none" xmlns="http://www.w3.org/2000/svg">
<path d="M43.7918 1.8121H1.8125C1.57215 1.8121 1.34164 1.90758 1.17168 2.07753C1.00173 2.24749 0.90625 2.478 0.90625 2.71835C0.90625 2.9587 1.00173 3.18921 1.17168 3.35916C1.34164 3.52912 1.57215 3.6246 1.8125 3.6246H8.39369C8.0475 4.3496 8.19069 4.3496 7.31253 9.07478C7.29078 9.07297 7.27175 9.0621 7.25 9.0621H1.8125C1.57215 9.0621 1.34164 9.15758 1.17168 9.32753C1.00173 9.49748 0.90625 9.72799 0.90625 9.96834C0.90625 10.2087 1.00173 10.4392 1.17168 10.6092C1.34164 10.7791 1.57215 10.8746 1.8125 10.8746H6.99534L6.03653 16.3121H1.8125C1.57215 16.3121 1.34164 16.4076 1.17168 16.5775C1.00173 16.7475 0.90625 16.978 0.90625 17.2183C0.90625 17.4587 1.00173 17.6892 1.17168 17.8592C1.34164 18.0291 1.57215 18.1246 1.8125 18.1246H5.71663L4.75781 23.5621H1.8125C1.57215 23.5621 1.34164 23.6576 1.17168 23.8275C1.00173 23.9975 0.90625 24.228 0.90625 24.4683C0.90625 24.7087 1.00173 24.9392 1.17168 25.1092C1.34164 25.2791 1.57215 25.3746 1.8125 25.3746H4.44062L3.66941 29.7482C3.59537 30.0996 3.60165 30.4632 3.68777 30.8118C3.77389 31.1605 3.93763 31.4852 4.16676 31.7617C4.3959 32.0383 4.68453 32.2595 5.01111 32.4089C5.33769 32.5583 5.69379 32.632 6.05284 32.6246H38.6778C39.3987 32.6073 40.092 32.3438 40.6423 31.8779C41.1926 31.4119 41.5669 30.7717 41.7029 30.0635L46.1771 4.68853C46.2513 4.33694 46.2451 3.97312 46.159 3.62425C46.0728 3.27538 45.9089 2.9505 45.6796 2.67389C45.4502 2.39727 45.1613 2.17609 44.8344 2.02685C44.5075 1.87762 44.1511 1.80421 43.7918 1.8121ZM25.0007 16.0611L11.4405 3.6246H42.9472L25.0007 16.0611ZM39.9185 29.7454C39.8555 30.0338 39.7004 30.2939 39.4766 30.4863C39.2528 30.6788 38.9724 30.7931 38.6778 30.8121H6.05284C5.95835 30.8201 5.86332 30.8048 5.77615 30.7674C5.68898 30.7301 5.61233 30.6719 5.55297 30.5979C5.4936 30.5239 5.45334 30.4365 5.43573 30.3433C5.41813 30.2501 5.42371 30.154 5.452 30.0635L9.92525 4.69397L17.4471 11.5951L9.51562 18.3403C9.42494 18.4176 9.35038 18.5121 9.2962 18.6183C9.24202 18.7244 9.20928 18.8402 9.19986 18.9591C9.19043 19.0779 9.2045 19.1974 9.24127 19.3108C9.27803 19.4242 9.33677 19.5292 9.41412 19.6199C9.49148 19.7106 9.58594 19.7852 9.69212 19.8393C9.79829 19.8935 9.91409 19.9262 10.0329 19.9357C10.1517 19.9451 10.2713 19.931 10.3846 19.8943C10.498 19.8575 10.6031 19.7988 10.6937 19.7214L18.8011 12.8339L24.3147 17.8908C24.4662 18.0296 24.6603 18.1129 24.8653 18.1269C25.0703 18.1409 25.274 18.0848 25.443 17.9678L32.8343 12.8457L38.4078 19.6117C38.4835 19.7036 38.5765 19.7797 38.6816 19.8356C38.7867 19.8915 38.9018 19.9262 39.0203 19.9376C39.1387 19.9491 39.2583 19.9371 39.3722 19.9023C39.486 19.8675 39.5919 19.8107 39.6838 19.735C39.7757 19.6593 39.8517 19.5663 39.9076 19.4612C39.9636 19.3561 39.9982 19.241 40.0097 19.1225C40.0211 19.004 40.0091 18.8845 39.9743 18.7706C39.9396 18.6568 39.8827 18.5509 39.807 18.459L34.3297 11.8089L44.3011 4.89335L39.9185 29.7454Z" fill="#282A2B"/>
<path d="M30.2551 27.1871H15.7551C15.5148 27.1871 15.2843 27.2826 15.1143 27.4525C14.9443 27.6225 14.8489 27.853 14.8489 28.0933C14.8489 28.3337 14.9443 28.5642 15.1143 28.7342C15.2843 28.9041 15.5148 28.9996 15.7551 28.9996H30.2551C30.4955 28.9996 30.726 28.9041 30.8959 28.7342C31.0659 28.5642 31.1614 28.3337 31.1614 28.0933C31.1614 27.853 31.0659 27.6225 30.8959 27.4525C30.726 27.2826 30.4955 27.1871 30.2551 27.1871Z" fill="#282A2B"/>
<g filter="url(#filter0_b_1_224)">
<path d="M55.2296 34.3221L21.18 18.4518C18.1893 17.058 15.0664 20.1937 16.8127 22.9088L25.297 36.0902H38.2383C38.3809 36.0843 38.5232 36.1073 38.6566 36.1578C38.7901 36.2082 38.9119 36.2852 39.0149 36.384C39.1179 36.4828 39.1998 36.6014 39.2558 36.7326C39.3117 36.8639 39.3406 37.0051 39.3406 37.1478C39.3406 37.2905 39.3117 37.4317 39.2558 37.5629C39.1998 37.6942 39.1179 37.8128 39.0149 37.9116C38.9119 38.0104 38.7901 38.0873 38.6566 38.1378C38.5232 38.1883 38.3809 38.2113 38.2383 38.2054H25.2961L16.8118 51.3841C15.0682 54.0947 18.1803 57.2375 21.18 55.8419L55.2296 39.9735C55.7827 39.7366 56.2541 39.3425 56.5854 38.8402C56.9166 38.3379 57.0932 37.7495 57.0932 37.1478C57.0932 36.5461 56.9166 35.9576 56.5854 35.4553C56.2541 34.953 55.7827 34.559 55.2296 34.3221Z" fill="#281C1E" fill-opacity="0.12"/>
</g>
<defs>
<filter id="filter0_b_1_224" x="12.3086" y="14.1094" width="48.7852" height="46.0752" filterUnits="userSpaceOnUse" color-interpolation-filters="sRGB">
<feFlood flood-opacity="0" result="BackgroundImageFix"/>
<feGaussianBlur in="BackgroundImageFix" stdDeviation="2"/>
<feComposite in2="SourceAlpha" operator="in" result="effect1_backgroundBlur_1_224"/>
<feBlend mode="normal" in="SourceGraphic" in2="effect1_backgroundBlur_1_224" result="shape"/>
</filter>
</defs>
</svg>
